 <svg width="1.556rem" height="1.556rem" viewBox="0 0 30 30"><title>Untitled</title><g id="Page-1" stroke="none" strokeWidth="1" fill="none" fillRule="evenodd"><path d="M15.00024,29.40024 L29.40024,29.40024 L29.40024,15.00024 C29.40024,7.04664 22.95384,0.60024 15.00024,0.60024 C7.04784,0.60024 0.60024,7.04664 0.60024,15.00024 C0.60024,22.95264 7.04784,29.40024 15.00024,29.40024 Z" id="Stroke-1" stroke="#00adef" fill="#e5f8fe" fillRule="nonzero"></path><path d="M6.10421331,26.3170832 L6.36904776,25.5888662 C6.65460729,24.715585 7.49408348,23.7928293 8.213143,23.2520623 C9.31753586,22.421352 10.505647,22.3523179 11.85202,22.2418634 C12.0400994,22.2257554 12.1318454,21.433014 12.1651033,21.2868918 C12.2866668,20.7231134 12.4070835,20.1144628 12.2052422,19.5564373 C12.0848255,19.2250736 11.7923851,19.1525878 11.4678335,19.1353293 C10.9150636,19.104264 9.3014803,18.8200736 9.27854379,18.7729003 C8.46659141,17.0320907 8.43103983,15.6675168 8.56407157,13.7253577 C8.76132554,10.8569912 11.0331867,8.18076964 13.8440557,7.60203385 C15.2649724,7.30978953 16.5735001,7.66186339 17.769639,8.44655089 C20.6699605,10.3449884 16.1308255,12.2802441 12.784389,12.1375736" id="Stroke-3" stroke="#00adef" strokeLinecap="round"></path><path d="M20.2738474,12.1022727 C20.7990934,13.3586932 20.7761569,13.7222727 20.7795974,15.0879972 C20.7807442,15.7725852 20.716522,16.4571733 20.5961053,17.1314062 C20.5020657,17.6606676 20.5559665,18.4119886 19.9057165,18.5546591 C19.1912442,18.7111364 18.4481014,18.6777699 17.7393633,18.882571 C17.1911807,19.0390483 16.7118077,19.330142 16.6911649,19.9572017 C16.6842839,20.1884659 16.7301569,20.4185795 16.7760299,20.6440909 C16.8356649,20.931733 16.894153,21.219375 16.9526411,21.507017 C17.0111292,21.7958097 17.0833792,21.9465341 17.373526,21.9695455 C17.6372958,21.9914062 17.9010657,22.0052131 18.1648355,22.0305256 C18.6809069,22.0776989 19.2153276,22.1214205 19.7164903,22.2652415 C21.3002561,22.7197159 22.2028077,24.0727841 22.7441093,25.6007386 C22.9684006,26.5065188 23.0805462,27.7729381 23.0805462,29.3999967" id="Stroke-5" stroke="#00adef" strokeLinecap="round"></path></g></svg>